<?xml version="1.0" encoding="utf-8"?>
<!-- Generator: Adobe Illustrator 28.1.0, SVG Export Plug-In . SVG Version: 6.00 Build 0)  -->
<svg version="1.1" xmlns="http://www.w3.org/2000/svg" xmlns:xlink="http://www.w3.org/1999/xlink" x="0px" y="0px"
	 viewBox="0 0 841.89 595.28" style="enable-background:new 0 0 841.89 595.28;" xml:space="preserve">
<style type="text/css">
	.st0{fill:#FFFFFF;}
	.st1{fill:#E30613;}
	.st2{fill:#F8D200;}
	.st3{display:none;opacity:0.5;}
</style>
<g id="Ebene_1">
	<g>
		<rect x="319" y="213.74" class="st0" width="204.09" height="136.06"/>
		<path d="M356.45,275.35c0.03-0.22,0.04-0.45,0.04-0.69c0-0.13,0-0.28-0.02-0.45c2-0.03,3.74-1.46,3.74-3.12
			c0-0.84-0.55-1.47-0.86-1.85c0.07-0.02,0.14-0.03,0.21-0.05c0.29,0.25,1.12,1.15,1.12,2.29
			C360.69,273.47,358.71,275.31,356.45,275.35 M354.44,268.46c-0.04-0.22-0.12-0.42-0.25-0.59c0.01-0.2,0.09-0.4,0.42-0.24
			c-0.17,0.18-0.04,0.5-0.04,0.5s0.36-0.17,0.29-0.41C355.39,267.85,355.01,268.56,354.44,268.46 M353.98,269.47
			c-0.07-0.3-0.22-0.6-0.42-0.83c-0.18-0.21-0.46-0.45-0.86-0.45c-0.18,0-0.48,0.08-0.67,0.16c-0.07-0.13-0.21-0.44-0.21-0.58
			c0-0.14,0.25-0.29,0.71-0.29c1.03,0,1.65,0.46,1.65,1.25C354.19,269,354.08,269.25,353.98,269.47 M356.63,282.77
			c0.12,0,0.18,0.02,0.25,0.05c0.3,0.81,1.44,2.33,1.49,2.4l0.01,0.01l0.01,0c0.28-0.04,1-0.15,1.6-0.15h0.02
			c0.06,0,0.14,0,0.18,0.05c0.04,0.04,0.06,0.11,0.06,0.2c0,0.15-0.06,0.41-0.14,0.51c-0.21-0.23-0.55-0.33-1.09-0.33
			c-0.17,0-0.36,0.05-0.46,0.08l-0.04,0.01l-0.05,0.01l0.31,0.32c0.49,0.48,0.91,0.9,0.91,1.18c0,0.17-0.16,0.39-0.31,0.48
			c-0.04-0.51-0.55-1.2-1.06-1.58l-0.04-0.04l-0.01,0.18c0,0.12-0.02,0.3-0.02,0.5c0,0.97-0.1,1.12-0.44,1.12
			c-0.05,0-0.13-0.02-0.18-0.04c0.19-0.23,0.26-0.54,0.26-1.09l0-0.25l0-0.2c0-0.23,0.02-0.39,0.04-0.52l0.01-0.07l-0.05-0.01
			c-0.16-0.02-0.45-0.06-0.68-0.06c-0.48,0-0.81,0.05-1.04,0.27c-0.16-0.13-0.32-0.34-0.32-0.48c0-0.2,0.13-0.22,0.29-0.22
			c0.08,0,0.16,0.02,0.27,0.03c0.21,0.03,0.52,0.08,1.16,0.08h0.04l-0.01-0.04c-0.16-0.46-0.61-1.14-1.32-2.01
			C356.34,282.92,356.41,282.77,356.63,282.77 M350.46,285.17l-0.02,0.04h0.04c0.64,0,0.95-0.05,1.16-0.08
			c0.11-0.01,0.19-0.03,0.27-0.03c0.16,0,0.29,0.02,0.29,0.22c0,0.14-0.16,0.35-0.32,0.48c-0.23-0.22-0.56-0.27-1.04-0.27
			c-0.22,0-0.52,0.04-0.68,0.06l-0.02,0l-0.03,0l0.01,0.07c0.02,0.13,0.04,0.3,0.04,0.52l0,0.2l0,0.25c0,0.54,0.07,0.85,0.27,1.09
			c-0.05,0.02-0.13,0.04-0.18,0.04c-0.34,0-0.44-0.15-0.44-1.12c0-0.2-0.01-0.38-0.02-0.5l-0.01-0.18l-0.04,0.04
			c-0.5,0.38-1.02,1.07-1.05,1.58c-0.15-0.1-0.32-0.32-0.32-0.48c0-0.28,0.42-0.7,0.91-1.18l0.28-0.28l0.04-0.04l-0.09-0.02
			c-0.11-0.03-0.3-0.08-0.46-0.08c-0.54,0-0.88,0.1-1.09,0.33c-0.08-0.11-0.14-0.37-0.14-0.51c0-0.1,0.02-0.16,0.06-0.2
			c0.05-0.05,0.12-0.05,0.19-0.05h0.01c0.6,0,1.32,0.11,1.6,0.15l0.02,0l0.01-0.01c0.05-0.07,1.2-1.59,1.49-2.4
			c0.07-0.03,0.12-0.05,0.25-0.05c0.23,0,0.29,0.15,0.35,0.39C351.07,284.03,350.62,284.71,350.46,285.17 M347.37,271.49
			c0-1.14,0.83-2.04,1.12-2.29c0.07,0.02,0.14,0.03,0.21,0.05c-0.31,0.38-0.86,1.01-0.86,1.85c0,1.67,1.78,3.12,3.8,3.12
			c-0.01,0.14-0.02,0.29-0.02,0.45c0,0.25,0.01,0.47,0.04,0.69C349.38,275.34,347.37,273.49,347.37,271.49 M362.67,275.01
			c1.02,1.62,1.82,1.59,3.04,1.59c-1-0.77-1.66-1.75-1.98-2.25l-1.87-2.99c-0.18-0.92-0.66-1.79-1.38-2.43
			c0.24-0.09,0.44-0.19,0.56-0.28c-1.22,0-2.43-0.62-3.1-0.62c-0.43,0-0.7,0.26-0.7,0.59c0.03,0.38,0.42,0.76,1.13,0.76
			c0.16,0,0.37-0.02,0.6-0.06c0.39,0.54,0.7,1.03,0.7,1.73c0,1.31-1.57,2.33-3.15,2.33c-0.09,0-0.18,0-0.26-0.01
			c-0.15-0.32-0.62-0.87-0.62-1.49c0-1.04,0.68-1.89,0.68-2.92c0-0.64-0.31-1.04-0.43-1.2c0.2-0.18,0.41-0.4,0.46-0.55
			c-0.11,0.05-0.25,0.05-0.44,0.05c-0.76,0-1.38-0.19-1.98-0.19c-0.34,0-0.43,0.11-0.43,0.21c0,0.04,0,0.07,0.02,0.09
			c-0.13-0.05-0.25-0.08-0.4-0.11c-0.17-0.04-0.37-0.05-0.57-0.05c-0.73,0-0.99,0.3-0.99,0.57c0,0.22,0.18,0.63,0.38,0.94
			c0.29-0.14,0.62-0.24,0.78-0.24c0.39,0,0.73,0.37,0.92,0.81c-0.26,0.03-0.31,0.04-0.57,0.04c-0.71,0-1.2-0.25-1.3-0.25
			c-0.01,0-0.03,0-0.03,0.02c0,0.1,0.2,0.36,0.6,0.51c0.52,0.2,1.31,0.27,1.44,0.3c0,0.02-0.13,0.27-0.28,0.32
			c-0.03,0.01-0.05,0.01-0.09,0c-0.55-0.11-0.7-0.15-1.39-0.42c-0.02-0.01-0.03,0-0.03,0.03c0,0.27,0.71,0.88,1.35,1.11
			c-0.53,0.68-1.2,1.38-1.51,2.44c-0.09,0.01-0.18,0.01-0.27,0.01c-1.58,0-3.15-1.02-3.15-2.33c0-0.7,0.31-1.19,0.7-1.73
			c0.23,0.04,0.43,0.06,0.6,0.06c0.71,0,1.11-0.38,1.13-0.76c0-0.34-0.27-0.59-0.7-0.59c-0.67,0-1.88,0.62-3.1,0.62
			c0.12,0.09,0.32,0.19,0.56,0.28c-0.71,0.64-1.19,1.51-1.38,2.43l-1.87,2.99c-0.32,0.5-0.98,1.49-1.98,2.25
			c1.21,0,2.01,0.03,3.04-1.59l0.96-1.53c0.07,0.2,0.16,0.39,0.26,0.58l-1.91,3.05c-0.32,0.51-0.98,1.48-1.98,2.25
			c1.21,0,2.01,0.03,3.04-1.59l1.64-2.62c0.12,0.13,0.25,0.26,0.39,0.38l-2.32,3.71c-0.32,0.51-0.97,1.48-1.98,2.25
			c1.21,0,2.01,0.03,3.03-1.59l2.26-3.61c0.15,0.09,0.3,0.18,0.46,0.27l-2.76,4.41c-0.32,0.5-0.97,1.47-1.98,2.25
			c1.21,0,2.01,0.03,3.04-1.59l2.84-4.54c0.17,0.06,0.34,0.13,0.51,0.18l-3.21,5.13c-0.31,0.5-0.98,1.49-1.98,2.25
			c1.21,0,2.01,0.03,3.03-1.59l3.42-5.47c0.04,0,0.07,0.01,0.11,0.02c0.09,0.3,0.16,0.58,0.16,0.85c0,1.72-1.12,3.24-2.48,4.41
			c0.09,0.04,0.24,0.05,0.38,0.05c0.28,0,0.46-0.02,0.59-0.04c-0.32,0.71-0.99,1.64-1.33,2.11c-0.44-0.08-1.09-0.14-1.51-0.14
			c-0.44,0-0.49,0.26-0.49,0.49c0,0.4,0.19,0.72,0.41,0.9c0.08-0.2,0.25-0.48,1.06-0.48c0.02,0,0.05,0,0.08,0
			c-0.24,0.27-0.98,0.87-0.98,1.36c0,0.32,0.35,0.8,0.82,0.8c-0.03-0.11-0.03-0.2-0.03-0.27c0-0.39,0.35-0.85,0.64-1.17
			c-0.01,0.1,0,0.09,0,0.2c0,0.93,0.09,1.36,0.68,1.36c0.29,0,0.49-0.16,0.56-0.21c-0.38-0.35-0.4-0.63-0.4-1.15
			c0-0.14,0-0.27,0-0.45c0-0.12,0-0.28-0.02-0.39c0.21-0.03,0.3-0.03,0.46-0.03c0,0,0.84-0.07,1.04,0.37
			c0.23-0.21,0.56-0.5,0.56-0.83c0-0.21-0.1-0.46-0.54-0.46c-0.16,0-0.68,0.1-1.11,0.1c0.12-0.26,0.63-1.01,1.08-1.56
			c0.07,0.21,0.17,0.44,0.41,0.63c0.04-0.35,0.24-1.46,0.79-2.12c0.07,0.44,0.15,0.89,0.15,1.84c0,2.31-0.56,4.02-1.74,4.35
			c0.15,0.27,0.48,0.51,0.82,0.51c0.43,0,0.67-0.49,0.91-0.95c0.12,0.34,0.47,1.17,0.82,1.17c0.35,0,0.69-0.84,0.82-1.17
			c0.24,0.46,0.48,0.95,0.91,0.95c0.34,0,0.66-0.24,0.82-0.51c-1.18-0.32-1.74-2.04-1.74-4.35c0-0.95,0.09-1.4,0.15-1.84
			c0.55,0.65,0.76,1.76,0.79,2.12c0.23-0.19,0.34-0.42,0.41-0.63c0.45,0.55,0.96,1.3,1.08,1.56c-0.43,0-0.95-0.1-1.11-0.1
			c-0.43,0-0.53,0.25-0.53,0.46c0,0.32,0.33,0.62,0.56,0.83c0.2-0.44,1.04-0.37,1.04-0.37c0.16,0,0.25,0,0.46,0.03
			c-0.02,0.12-0.02,0.27-0.02,0.39c0,0.18,0,0.32,0,0.45c0,0.52-0.02,0.8-0.4,1.15c0.07,0.05,0.27,0.21,0.56,0.21
			c0.59,0,0.68-0.43,0.68-1.36c0-0.11,0-0.1,0-0.2c0.29,0.32,0.64,0.79,0.64,1.17c0,0.08,0,0.17-0.03,0.27
			c0.47,0,0.82-0.48,0.82-0.8c0-0.49-0.75-1.09-0.98-1.36c0.04,0,0.07,0,0.08,0c0.82,0,0.98,0.27,1.06,0.48
			c0.22-0.17,0.41-0.5,0.41-0.9c0-0.23-0.05-0.49-0.49-0.49c-0.42,0-1.07,0.06-1.51,0.14c-0.34-0.47-1.01-1.39-1.33-2.11
			c0.13,0.02,0.31,0.04,0.59,0.04c0.14,0,0.29-0.02,0.38-0.05c-1.35-1.17-2.48-2.69-2.48-4.41c0-0.27,0.06-0.55,0.16-0.85
			c0.04-0.01,0.07-0.01,0.11-0.02l3.42,5.47c1.02,1.62,1.83,1.59,3.04,1.59c-1-0.76-1.67-1.75-1.98-2.25l-3.21-5.13
			c0.18-0.05,0.34-0.12,0.51-0.18l2.84,4.54c1.02,1.62,1.82,1.59,3.04,1.59c-1.01-0.78-1.66-1.75-1.98-2.25l-2.75-4.41
			c0.16-0.09,0.31-0.18,0.46-0.27l2.26,3.61c1.02,1.62,1.82,1.59,3.04,1.59c-1.01-0.77-1.66-1.74-1.98-2.25l-2.32-3.71
			c0.14-0.12,0.27-0.25,0.39-0.38l1.64,2.62c1.02,1.62,1.82,1.59,3.04,1.59c-1-0.77-1.66-1.75-1.98-2.25l-1.91-3.05
			c0.1-0.19,0.19-0.38,0.26-0.58L362.67,275.01z M362.67,275.01"/>
		<rect x="371.78" y="268.06" width="3.5" height="20"/>
		<rect x="371.78" y="287.96" class="st1" width="3.5" height="20.1"/>
		<rect x="371.78" y="308.06" class="st2" width="3.5" height="20"/>
		<path d="M387.57,269.88c0-1.29-0.78-2.11-2.75-2.11h-1.59v8.28h1.69c1.98,0,2.87-0.95,2.87-2.25c0-1.1-0.71-1.82-1.56-1.99v-0.02
			C386.95,271.6,387.57,271.03,387.57,269.88L387.57,269.88z M386.52,269.92c0,0.95-0.59,1.54-1.7,1.54h-0.54v-2.86h0.55
			C385.99,268.6,386.52,269.16,386.52,269.92L386.52,269.92z M386.67,273.73c0,0.95-0.53,1.45-1.75,1.45h-0.65v-2.91h0.71
			C386.06,272.28,386.67,272.85,386.67,273.73L386.67,273.73z M392.19,275.4h0.03v0.65h0.89v-5.76h-0.97v4.41
			c-0.19,0.24-0.57,0.64-1.16,0.64c-0.65,0-0.96-0.39-0.96-1.33v-3.71h-0.97v3.78c0,1.56,0.64,2.12,1.66,2.12
			C391.57,276.19,392.09,275.6,392.19,275.4L392.19,275.4z M396.74,270.97c0.67,0,1,0.4,1,1.37v3.71h0.97v-3.78
			c0-1.56-0.65-2.12-1.68-2.12c-0.9,0-1.41,0.59-1.52,0.79h-0.02v-0.65h-0.89v5.76h0.97v-4.44
			C395.76,271.37,396.15,270.97,396.74,270.97L396.74,270.97z M402.18,275.33c-0.67,0-1.27-0.53-1.27-2.11
			c0-1.63,0.71-2.21,1.61-2.21c0.35,0,0.58,0.09,0.75,0.2v3.55C403.12,274.96,402.79,275.33,402.18,275.33L402.18,275.33z
			 M403.32,275.44h0.02v0.61h0.89v-8.59l-0.97,0.11v2.76c-0.18-0.07-0.45-0.14-0.82-0.14c-1.22,0-2.54,0.74-2.54,3.07
			c0,2.1,0.92,2.94,2.02,2.94C402.82,276.19,403.21,275.62,403.32,275.44L403.32,275.44z M407.59,270.94c0.61,0,0.93,0.47,0.93,1.26
			c0,0.18-0.01,0.34-0.02,0.42h-2.09C406.46,271.54,406.91,270.94,407.59,270.94L407.59,270.94z M409.53,275.51l-0.36-0.68
			c-0.13,0.13-0.53,0.5-1.21,0.5c-0.97,0-1.5-0.64-1.56-1.98h2.94c0.04-0.28,0.07-0.62,0.07-1.12c0-1.38-0.67-2.09-1.77-2.09
			c-1.2,0-2.2,0.91-2.2,2.95c0,2.17,0.91,3.1,2.36,3.1C408.91,276.19,409.38,275.68,409.53,275.51L409.53,275.51z M413.61,270.76
			c-0.19-0.19-0.58-0.61-1.46-0.61c-0.93,0-1.67,0.64-1.67,1.49c0,0.79,0.43,1.26,1.15,1.72l0.36,0.23
			c0.55,0.35,0.84,0.54,0.84,1.09c0,0.37-0.31,0.66-0.89,0.66c-0.63,0-0.98-0.38-1.16-0.57l-0.47,0.77c0.23,0.24,0.7,0.66,1.62,0.66
			c1.18,0,1.84-0.71,1.84-1.62c0-0.85-0.48-1.32-1.26-1.79l-0.36-0.22c-0.52-0.31-0.75-0.55-0.75-0.98c0-0.34,0.27-0.61,0.79-0.61
			c0.54,0,0.88,0.34,1.01,0.48L413.61,270.76z M417.07,271.01c0.6,0,0.86,0.4,0.86,1.33v3.71h0.97v-3.86c0-0.22-0.01-0.42-0.05-0.6
			c0.22-0.25,0.58-0.58,1.11-0.58c0.65,0,1,0.4,1,1.33v3.71h0.97v-3.86c0-1.37-0.6-2.04-1.75-2.04c-0.74,0-1.27,0.44-1.52,0.77
			c-0.26-0.52-0.74-0.77-1.39-0.77c-0.79,0-1.29,0.53-1.44,0.79h-0.02v-0.65h-0.89v5.76h0.97v-4.44
			C416.05,271.4,416.42,271.01,417.07,271.01L417.07,271.01z M423.87,268.9c0.39,0,0.65-0.29,0.65-0.69c0-0.4-0.26-0.68-0.65-0.68
			c-0.39,0-0.66,0.29-0.66,0.68C423.21,268.61,423.48,268.9,423.87,268.9L423.87,268.9z M424.35,270.29h-0.97v5.76h0.97V270.29z
			 M427.99,270.97c0.67,0,1,0.4,1,1.37v3.71h0.97v-3.78c0-1.56-0.65-2.12-1.68-2.12c-0.9,0-1.42,0.59-1.52,0.79h-0.02v-0.65h-0.89
			v5.76h0.97v-4.44C427,271.37,427.4,270.97,427.99,270.97L427.99,270.97z M431.9,268.9c0.38,0,0.65-0.29,0.65-0.69
			c0-0.4-0.27-0.68-0.65-0.68c-0.4,0-0.66,0.29-0.66,0.68C431.24,268.61,431.5,268.9,431.9,268.9L431.9,268.9z M432.38,270.29h-0.97
			v5.76h0.97V270.29z M436.77,270.76c-0.19-0.19-0.58-0.61-1.46-0.61c-0.94,0-1.67,0.64-1.67,1.49c0,0.79,0.43,1.26,1.15,1.72
			l0.36,0.23c0.55,0.35,0.84,0.54,0.84,1.09c0,0.37-0.31,0.66-0.89,0.66c-0.62,0-0.98-0.38-1.16-0.57l-0.47,0.77
			c0.23,0.24,0.69,0.66,1.62,0.66c1.18,0,1.84-0.71,1.84-1.62c0-0.85-0.48-1.32-1.26-1.79l-0.36-0.22
			c-0.52-0.31-0.75-0.55-0.75-0.98c0-0.34,0.27-0.61,0.79-0.61c0.54,0,0.88,0.34,1.01,0.48L436.77,270.76z M440.68,275.94
			l-0.13-0.78c-0.1,0.06-0.31,0.17-0.6,0.17c-0.49,0-0.68-0.24-0.68-1.06v-3.19h1.26l0.12-0.79h-1.38v-1.61h-0.86l-0.11,1.61
			l-0.7,0.14v0.65h0.7v3.32c0,1.27,0.5,1.79,1.49,1.79C440.3,276.19,440.6,276,440.68,275.94L440.68,275.94z M443.42,270.94
			c0.61,0,0.93,0.47,0.93,1.26c0,0.18-0.01,0.34-0.02,0.42h-2.09C442.29,271.54,442.74,270.94,443.42,270.94L443.42,270.94z
			 M445.36,275.51l-0.36-0.68c-0.13,0.13-0.53,0.5-1.21,0.5c-0.97,0-1.5-0.64-1.56-1.98h2.94c0.03-0.28,0.07-0.62,0.07-1.12
			c0-1.38-0.67-2.09-1.77-2.09c-1.2,0-2.19,0.91-2.19,2.95c0,2.17,0.91,3.1,2.36,3.1C444.74,276.19,445.21,275.68,445.36,275.51
			L445.36,275.51z M449.19,270.28c-0.09-0.03-0.25-0.09-0.53-0.09c-0.73,0-1.04,0.43-1.21,0.89h-0.02v-0.78h-0.89v5.76h0.97v-4.22
			c0.14-0.39,0.47-0.78,1.08-0.78c0.26,0,0.43,0.07,0.48,0.09L449.19,270.28z M450.52,268.9c0.39,0,0.65-0.29,0.65-0.69
			c0-0.4-0.26-0.68-0.65-0.68c-0.39,0-0.66,0.29-0.66,0.68C449.86,268.61,450.13,268.9,450.52,268.9L450.52,268.9z M451,270.29
			h-0.97v5.76H451V270.29z M455.61,275.4h0.02v0.65h0.89v-5.76h-0.97v4.41c-0.2,0.24-0.58,0.64-1.16,0.64
			c-0.65,0-0.96-0.39-0.96-1.33v-3.71h-0.97v3.78c0,1.56,0.64,2.12,1.66,2.12C454.99,276.19,455.5,275.6,455.61,275.4L455.61,275.4z
			 M460.17,271.01c0.6,0,0.86,0.4,0.86,1.33v3.71h0.97v-3.86c0-0.22-0.01-0.42-0.05-0.6c0.21-0.25,0.57-0.58,1.1-0.58
			c0.65,0,1,0.4,1,1.33v3.71h0.97v-3.86c0-1.37-0.6-2.04-1.75-2.04c-0.75,0-1.27,0.44-1.52,0.77c-0.27-0.52-0.75-0.77-1.4-0.77
			c-0.79,0-1.28,0.53-1.44,0.79h-0.02v-0.65h-0.89v5.76h0.97v-4.44C459.15,271.4,459.52,271.01,460.17,271.01L460.17,271.01z
			 M460.17,271.01"/>
		<path d="M385.45,283.08l0.12-0.79h-1.3v-1.03c0-0.75,0.25-1.01,0.71-1.01c0.25,0,0.43,0.1,0.53,0.16l0.21-0.81
			c-0.1-0.06-0.41-0.21-0.82-0.21c-0.85,0-1.6,0.5-1.6,1.76v1.15l-0.7,0.13v0.65h0.7v4.97h0.97v-4.97H385.45z M389.9,280.63
			c0-0.37-0.25-0.61-0.58-0.61c-0.32,0-0.57,0.24-0.57,0.61c0,0.38,0.25,0.61,0.57,0.61C389.65,281.24,389.9,281.01,389.9,280.63
			L389.9,280.63z M388.05,280.63c0-0.37-0.25-0.61-0.58-0.61c-0.33,0-0.58,0.24-0.58,0.61c0,0.38,0.25,0.61,0.58,0.61
			C387.8,281.24,388.05,281.01,388.05,280.63L388.05,280.63z M389.53,287.4h0.03v0.65h0.89v-5.76h-0.97v4.41
			c-0.19,0.24-0.57,0.64-1.16,0.64c-0.65,0-0.96-0.39-0.96-1.33v-3.71h-0.97v3.78c0,1.56,0.64,2.12,1.66,2.12
			C388.91,288.19,389.42,287.6,389.53,287.4L389.53,287.4z M394.58,282.28c-0.1-0.03-0.25-0.09-0.53-0.09
			c-0.74,0-1.05,0.43-1.22,0.89h-0.02v-0.78h-0.89v5.76h0.97v-4.22c0.15-0.39,0.47-0.78,1.08-0.78c0.27,0,0.43,0.07,0.48,0.09
			L394.58,282.28z M398.94,288.05v-3.56h2.72v-0.83h-2.72v-3.06h2.95l0.07-0.83h-4.07v8.28H398.94z M402.69,285.17
			c0,2.16,0.97,3.02,2.25,3.02c1.26,0,2.3-0.88,2.3-3.02c0-2.12-0.97-3.03-2.25-3.03C403.76,282.14,402.69,283.05,402.69,285.17
			L402.69,285.17z M406.23,285.17c0,1.52-0.47,2.16-1.26,2.16s-1.27-0.64-1.27-2.16c0-1.53,0.47-2.2,1.26-2.2
			C405.75,282.97,406.23,283.64,406.23,285.17L406.23,285.17z M411.12,282.28c-0.1-0.03-0.25-0.09-0.53-0.09
			c-0.74,0-1.05,0.43-1.21,0.89h-0.02v-0.78h-0.89v5.76h0.97v-4.22c0.14-0.39,0.47-0.78,1.08-0.78c0.26,0,0.43,0.07,0.48,0.09
			L411.12,282.28z M414.81,282.76c-0.19-0.19-0.57-0.61-1.46-0.61c-0.93,0-1.67,0.64-1.67,1.49c0,0.79,0.43,1.26,1.15,1.72
			l0.36,0.23c0.56,0.35,0.84,0.54,0.84,1.09c0,0.37-0.31,0.66-0.89,0.66c-0.62,0-0.99-0.38-1.17-0.57l-0.47,0.77
			c0.23,0.24,0.69,0.66,1.62,0.66c1.18,0,1.84-0.71,1.84-1.62c0-0.85-0.48-1.32-1.26-1.79l-0.36-0.22
			c-0.52-0.31-0.75-0.55-0.75-0.98c0-0.34,0.27-0.61,0.79-0.61c0.54,0,0.88,0.34,1.01,0.48L414.81,282.76z M419.72,282.72
			c-0.18-0.2-0.59-0.58-1.46-0.58c-1.14,0-2.41,0.8-2.41,3.02c0,2.25,1.02,3.03,2.3,3.03c0.9,0,1.34-0.42,1.5-0.6l-0.39-0.67
			c-0.12,0.13-0.42,0.41-1.01,0.41c-0.83,0-1.39-0.55-1.39-2.25c0-1.52,0.65-2.11,1.48-2.11c0.58,0,0.88,0.32,0.98,0.43
			L419.72,282.72z M422.89,282.97c0.67,0,1,0.4,1,1.37v3.71h0.97v-3.78c0-1.52-0.63-2.12-1.64-2.12c-0.92,0-1.36,0.55-1.47,0.73
			h-0.03v-3.42l-0.97,0.11v8.48h0.97v-4.44C421.91,283.37,422.3,282.97,422.89,282.97L422.89,282.97z M429.43,287.4h0.02v0.65h0.89
			v-5.76h-0.97v4.41c-0.19,0.24-0.57,0.64-1.16,0.64c-0.64,0-0.96-0.39-0.96-1.33v-3.71h-0.97v3.78c0,1.56,0.64,2.12,1.66,2.12
			C428.8,288.19,429.32,287.6,429.43,287.4L429.43,287.4z M433.98,282.97c0.67,0,1,0.4,1,1.37v3.71h0.97v-3.78
			c0-1.56-0.65-2.12-1.68-2.12c-0.9,0-1.42,0.59-1.52,0.79h-0.02v-0.65h-0.89v5.76h0.97v-4.44
			C432.99,283.37,433.39,282.97,433.98,282.97L433.98,282.97z M440.13,284.08c0,0.83-0.46,1.15-1.01,1.15c-0.53,0-1-0.32-1-1.15
			c0-0.83,0.47-1.15,1.02-1.15C439.68,282.92,440.13,283.25,440.13,284.08L440.13,284.08z M441.55,288.49
			c0-1.09-0.81-1.53-1.91-1.53h-0.73c-0.42,0-0.59-0.17-0.59-0.41c0-0.3,0.28-0.46,0.47-0.54c0.1,0.01,0.19,0.01,0.3,0.01
			c1.13,0,1.99-0.73,1.99-1.96c0-0.38-0.1-0.74-0.28-1.03h0.72l0.13-0.76h-1.75c-0.24-0.09-0.49-0.14-0.77-0.14
			c-1.08,0-1.96,0.64-1.96,1.93c0,0.91,0.4,1.49,0.98,1.77v0.02c-0.14,0.07-0.7,0.31-0.7,0.93c0,0.36,0.13,0.62,0.37,0.81v0.02
			c-0.26,0.14-0.96,0.55-0.96,1.41c0,1,0.66,1.56,1.89,1.56C440.47,290.59,441.55,289.73,441.55,288.49L441.55,288.49z
			 M438.84,289.76c-0.68,0-1.02-0.31-1.02-0.92c0-0.58,0.31-0.85,0.59-1.01c0.13,0.02,0.28,0.04,0.44,0.04h0.73
			c0.59,0,0.97,0.22,0.97,0.77C440.55,289.22,440.01,289.76,438.84,289.76L438.84,289.76z M442.5,289.73
			c0.64-0.23,1.4-0.74,1.4-1.84c0-0.79-0.33-1.18-0.79-1.18c-0.34,0-0.62,0.21-0.62,0.65c0,0.44,0.29,0.68,0.66,0.68h0.03
			c0,0.7-0.37,1.01-0.88,1.26L442.5,289.73z M452.05,279.77h-5.53v0.83h2.21v7.45h1.04v-7.45h2.21L452.05,279.77z M453.87,282.94
			c0.61,0,0.94,0.47,0.94,1.26c0,0.18-0.01,0.34-0.02,0.42h-2.09C452.75,283.54,453.19,282.94,453.87,282.94L453.87,282.94z
			 M455.82,287.51l-0.36-0.68c-0.13,0.13-0.53,0.5-1.21,0.5c-0.97,0-1.5-0.64-1.56-1.98h2.94c0.04-0.28,0.07-0.62,0.07-1.12
			c0-1.38-0.67-2.09-1.76-2.09c-1.2,0-2.2,0.91-2.2,2.95c0,2.17,0.91,3.1,2.36,3.1C455.19,288.19,455.66,287.68,455.82,287.51
			L455.82,287.51z M460.6,282.72c-0.18-0.2-0.59-0.58-1.46-0.58c-1.14,0-2.41,0.8-2.41,3.02c0,2.25,1.02,3.03,2.3,3.03
			c0.9,0,1.34-0.42,1.5-0.6l-0.39-0.67c-0.12,0.13-0.42,0.41-1.01,0.41c-0.83,0-1.39-0.55-1.39-2.25c0-1.52,0.65-2.11,1.47-2.11
			c0.58,0,0.88,0.32,0.98,0.43L460.6,282.72z M463.77,282.97c0.67,0,1,0.4,1,1.37v3.71h0.97v-3.78c0-1.52-0.64-2.12-1.64-2.12
			c-0.93,0-1.36,0.55-1.48,0.73h-0.02v-3.42l-0.97,0.11v8.48h0.97v-4.44C462.79,283.37,463.18,282.97,463.77,282.97L463.77,282.97z
			 M469.34,282.97c0.67,0,1,0.4,1,1.37v3.71h0.97v-3.78c0-1.56-0.65-2.12-1.68-2.12c-0.9,0-1.42,0.59-1.52,0.79h-0.02v-0.65h-0.89
			v5.76h0.97v-4.44C468.35,283.37,468.75,282.97,469.34,282.97L469.34,282.97z M472.5,285.17c0,2.16,0.97,3.02,2.25,3.02
			c1.26,0,2.3-0.88,2.3-3.02c0-2.12-0.97-3.03-2.24-3.03C473.57,282.14,472.5,283.05,472.5,285.17L472.5,285.17z M476.03,285.17
			c0,1.52-0.46,2.16-1.26,2.16c-0.79,0-1.27-0.64-1.27-2.16c0-1.53,0.47-2.2,1.26-2.2S476.03,283.64,476.03,285.17L476.03,285.17z
			 M479.23,279.46l-0.97,0.11v7.22c0,1.02,0.44,1.37,1.09,1.37c0.43,0,0.68-0.11,0.78-0.16l-0.09-0.72
			c-0.06,0.02-0.18,0.07-0.36,0.07c-0.34,0-0.45-0.17-0.45-0.65V279.46z M480.74,285.17c0,2.16,0.97,3.02,2.24,3.02
			c1.26,0,2.31-0.88,2.31-3.02c0-2.12-0.97-3.03-2.25-3.03C481.81,282.14,480.74,283.05,480.74,285.17L480.74,285.17z
			 M484.28,285.17c0,1.52-0.47,2.16-1.26,2.16c-0.79,0-1.27-0.64-1.27-2.16c0-1.53,0.46-2.2,1.26-2.2
			C483.8,282.97,484.28,283.64,484.28,285.17L484.28,285.17z M489.25,284.08c0,0.83-0.46,1.15-1.01,1.15c-0.53,0-1-0.32-1-1.15
			c0-0.83,0.47-1.15,1.02-1.15C488.79,282.92,489.25,283.25,489.25,284.08L489.25,284.08z M490.66,288.49
			c0-1.09-0.82-1.53-1.91-1.53h-0.74c-0.42,0-0.58-0.17-0.58-0.41c0-0.3,0.27-0.46,0.47-0.54c0.09,0.01,0.19,0.01,0.3,0.01
			c1.13,0,1.99-0.73,1.99-1.96c0-0.38-0.09-0.74-0.27-1.03h0.72l0.13-0.76h-1.75c-0.24-0.09-0.49-0.14-0.77-0.14
			c-1.08,0-1.96,0.64-1.96,1.93c0,0.91,0.39,1.49,0.98,1.77v0.02c-0.14,0.07-0.7,0.31-0.7,0.93c0,0.36,0.13,0.62,0.37,0.81v0.02
			c-0.27,0.14-0.96,0.55-0.96,1.41c0,1,0.66,1.56,1.88,1.56C489.59,290.59,490.66,289.73,490.66,288.49L490.66,288.49z
			 M487.95,289.76c-0.68,0-1.02-0.31-1.02-0.92c0-0.58,0.31-0.85,0.59-1.01c0.13,0.02,0.29,0.04,0.44,0.04h0.73
			c0.59,0,0.97,0.22,0.97,0.77C489.67,289.22,489.13,289.76,487.95,289.76L487.95,289.76z M492.24,280.9c0.38,0,0.65-0.29,0.65-0.69
			c0-0.4-0.26-0.68-0.65-0.68c-0.4,0-0.66,0.29-0.66,0.68C491.58,280.61,491.84,280.9,492.24,280.9L492.24,280.9z M492.71,282.29
			h-0.97v5.76h0.97V282.29z M496.08,282.94c0.61,0,0.93,0.47,0.93,1.26c0,0.18-0.01,0.34-0.02,0.42h-2.09
			C494.95,283.54,495.39,282.94,496.08,282.94L496.08,282.94z M498.02,287.51l-0.36-0.68c-0.13,0.13-0.53,0.5-1.21,0.5
			c-0.97,0-1.5-0.64-1.56-1.98h2.94c0.04-0.28,0.07-0.62,0.07-1.12c0-1.38-0.67-2.09-1.76-2.09c-1.2,0-2.2,0.91-2.2,2.95
			c0,2.17,0.91,3.1,2.36,3.1C497.4,288.19,497.86,287.68,498.02,287.51L498.02,287.51z M498.02,287.51"/>
		<path d="M386.14,299.4h0.02v0.65h0.89v-5.76h-0.97v4.41c-0.19,0.24-0.58,0.64-1.16,0.64c-0.65,0-0.96-0.39-0.96-1.33v-3.71h-0.97
			v3.78c0,1.56,0.64,2.12,1.66,2.12C385.52,300.19,386.03,299.6,386.14,299.4L386.14,299.4z M390.69,294.97c0.67,0,1,0.4,1,1.37
			v3.71h0.97v-3.78c0-1.56-0.65-2.12-1.68-2.12c-0.9,0-1.41,0.59-1.52,0.79h-0.02v-0.65h-0.89v5.76h0.97v-4.44
			C389.71,295.37,390.1,294.97,390.69,294.97L390.69,294.97z M396.13,299.33c-0.67,0-1.27-0.53-1.27-2.11
			c0-1.63,0.71-2.21,1.61-2.21c0.35,0,0.57,0.09,0.74,0.2v3.55C397.08,298.96,396.74,299.33,396.13,299.33L396.13,299.33z
			 M397.27,299.44h0.02v0.61h0.89v-8.59l-0.97,0.11v2.76c-0.18-0.07-0.44-0.14-0.81-0.14c-1.23,0-2.55,0.74-2.55,3.07
			c0,2.1,0.93,2.94,2.02,2.94C396.78,300.19,397.16,299.62,397.27,299.44L397.27,299.44z M405.78,294.14c0,1.08-0.6,1.71-1.86,1.71
			h-0.46v-3.25h0.5C405.2,292.6,405.78,293.1,405.78,294.14L405.78,294.14z M403.46,296.68h0.46c0.19,0,0.38-0.01,0.56-0.02
			l1.72,3.39h1.23l-1.95-3.65c0.95-0.41,1.42-1.23,1.42-2.32c0-1.52-0.94-2.32-2.93-2.32h-1.55v8.28h1.04V296.68z M410.76,296.81
			h-0.3c-1.31,0-2.4,0.45-2.4,1.78c0,0.94,0.66,1.61,1.54,1.61c0.73,0,1.08-0.49,1.21-0.78h0.02c0.01,0.29,0.02,0.47,0.03,0.64h0.93
			c-0.02-0.16-0.07-0.71-0.07-1.2v-2.63c0-1.45-0.62-2.08-1.8-2.08c-0.93,0-1.48,0.44-1.73,0.7l0.41,0.65
			c0.21-0.2,0.6-0.52,1.18-0.52c0.62,0,0.98,0.31,0.98,1.29V296.81z M410.76,297.53v1.27c-0.12,0.18-0.4,0.57-0.96,0.57
			c-0.48,0-0.77-0.3-0.77-0.89c0-0.63,0.49-0.9,1.42-0.93L410.76,297.53z M416.3,299.4h0.02v0.65h0.89v-5.76h-0.97v4.41
			c-0.19,0.24-0.58,0.64-1.16,0.64c-0.65,0-0.96-0.39-0.96-1.33v-3.71h-0.97v3.78c0,1.56,0.64,2.12,1.66,2.12
			C415.68,300.19,416.19,299.6,416.3,299.4L416.3,299.4z M420.86,295.01c0.6,0,0.87,0.4,0.87,1.33v3.71h0.97v-3.86
			c0-0.22-0.01-0.42-0.05-0.6c0.21-0.25,0.58-0.58,1.11-0.58c0.65,0,1,0.4,1,1.33v3.71h0.97v-3.86c0-1.37-0.6-2.04-1.75-2.04
			c-0.74,0-1.27,0.44-1.52,0.77c-0.27-0.52-0.75-0.77-1.39-0.77c-0.79,0-1.29,0.53-1.44,0.79h-0.02v-0.65h-0.89v5.76h0.97v-4.44
			C419.84,295.4,420.21,295.01,420.86,295.01L420.86,295.01z M429.6,295.08l0.12-0.79h-1.3v-1.03c0-0.75,0.25-1.01,0.71-1.01
			c0.25,0,0.43,0.1,0.53,0.16l0.2-0.81c-0.09-0.06-0.41-0.21-0.82-0.21c-0.85,0-1.59,0.5-1.59,1.76v1.15l-0.7,0.13v0.65h0.7v4.97
			h0.97v-4.97H429.6z M432.86,296.81h-0.3c-1.31,0-2.4,0.45-2.4,1.78c0,0.94,0.66,1.61,1.54,1.61c0.73,0,1.08-0.49,1.21-0.78h0.02
			c0.01,0.29,0.02,0.47,0.04,0.64h0.93c-0.03-0.16-0.08-0.71-0.08-1.2v-2.63c0-1.45-0.62-2.08-1.8-2.08c-0.92,0-1.48,0.44-1.73,0.7
			l0.41,0.65c0.22-0.2,0.6-0.52,1.18-0.52c0.62,0,0.98,0.31,0.98,1.29V296.81z M432.86,297.53v1.27c-0.12,0.18-0.39,0.57-0.96,0.57
			c-0.48,0-0.77-0.3-0.77-0.89c0-0.63,0.49-0.9,1.42-0.93L432.86,297.53z M437.43,294.97c0.67,0,1,0.4,1,1.37v3.71h0.97v-3.78
			c0-1.52-0.64-2.12-1.64-2.12c-0.93,0-1.36,0.55-1.48,0.73h-0.02v-3.42l-0.97,0.11v8.48h0.97v-4.44
			C436.45,295.37,436.84,294.97,437.43,294.97L437.43,294.97z M443.5,294.28c-0.09-0.03-0.25-0.09-0.53-0.09
			c-0.73,0-1.04,0.43-1.21,0.89h-0.02v-0.78h-0.89v5.76h0.97v-4.22c0.15-0.39,0.47-0.78,1.08-0.78c0.26,0,0.43,0.07,0.48,0.09
			L443.5,294.28z M446.96,299.94l-0.13-0.78c-0.09,0.06-0.31,0.17-0.6,0.17c-0.49,0-0.69-0.24-0.69-1.06v-3.19h1.26l0.12-0.79h-1.38
			v-1.61h-0.86l-0.11,1.61l-0.7,0.14v0.65h0.7v3.32c0,1.27,0.5,1.79,1.49,1.79C446.58,300.19,446.88,300,446.96,299.94
			L446.96,299.94z M446.96,299.94"/>
	</g>
</g>
<g id="Ebene_3">
	<g>
		<path d="M347.09,238.64c-0.22-0.15-0.7-0.33-1.28-0.33c-1.28,0-2.53,0.84-2.53,3.01c0,2.1,0.98,3.14,2.36,3.14
			c0.5,0,0.9-0.09,1.21-0.21v-2.09l-0.64-0.15c-0.11-0.02-0.15-0.05-0.15-0.12c0-0.09,0.07-0.22,0.12-0.31h2.39
			c0,0,0.01,0.06,0.01,0.12c0,0.17-0.09,0.29-0.36,0.37l-0.24,0.06v2.19c-0.28,0.25-1.06,0.82-2.6,0.82c-1.85,0-3.3-1.14-3.3-3.7
			c0-2.73,2.03-3.8,3.77-3.8c1.11,0,1.67,0.31,2.02,0.47c0.03,0.32,0.06,0.97,0.06,1.05c0,0.33-0.09,0.54-0.37,0.54
			c-0.08,0-0.17-0.02-0.24-0.04L347.09,238.64z"/>
		<path d="M350.53,242.51c0.01,1.3,0.63,1.91,1.53,1.91c0.67,0,1.05-0.26,1.31-0.48c0.11,0.08,0.16,0.26,0.16,0.36
			c0,0.26-0.69,0.86-1.86,0.86c-1.29,0-2.26-0.73-2.26-2.56s1.1-2.76,2.3-2.76c1.19,0,1.78,0.72,1.78,1.77
			c0,0.27-0.05,0.64-0.13,0.9H350.53z M352.36,241.95c0.02-0.09,0.05-0.27,0.05-0.45c0-0.58-0.21-1.07-0.82-1.07
			c-0.62,0-0.99,0.49-1.06,1.52H352.36z"/>
		<path d="M357.36,240.53h-1.28v3.93l0.71,0.14c0.1,0.02,0.15,0.05,0.15,0.14c0,0.1-0.07,0.26-0.1,0.29h-2.5
			c0,0-0.01-0.06-0.01-0.09c0-0.19,0.13-0.27,0.33-0.35l0.36-0.13v-3.93h-0.78c0,0-0.01-0.06-0.01-0.09c0-0.2,0.13-0.3,0.33-0.36
			l0.46-0.13v-0.11c0-1.69,1.03-2.51,1.93-2.51c0.52,0,0.73,0.23,0.73,0.56c0,0.26-0.16,0.41-0.31,0.49c-0.09-0.1-0.37-0.3-0.69-0.3
			c-0.45,0-0.61,0.25-0.61,0.87c0,0.33,0.02,1,0.02,1h1.4L357.36,240.53z"/>
		<path d="M362.77,242.44c0,1.82-1.27,2.71-2.55,2.71c-1.31,0-2.39-0.84-2.39-2.6c0-1.77,1.26-2.72,2.59-2.72
			C361.73,239.83,362.77,240.62,362.77,242.44z M359.35,239.1c-0.31,0-0.57-0.23-0.57-0.57c0-0.36,0.25-0.59,0.57-0.59
			c0.33,0,0.57,0.23,0.57,0.59C359.92,238.87,359.68,239.1,359.35,239.1z M358.94,242.48c0,1.41,0.57,2.04,1.34,2.04
			s1.35-0.61,1.35-2.02s-0.58-2.06-1.35-2.06S358.94,241.07,358.94,242.48z M361.25,239.1c-0.34,0-0.58-0.23-0.58-0.57
			c0-0.36,0.24-0.59,0.58-0.59c0.31,0,0.56,0.23,0.56,0.59C361.81,238.87,361.57,239.1,361.25,239.1z"/>
		<path d="M365.13,240.79h0.03c0.22-0.36,0.61-0.97,1.29-0.97c0.49,0,0.72,0.23,0.72,0.56c0,0.23-0.11,0.43-0.19,0.54
			c-0.08-0.04-0.35-0.16-0.7-0.16c-0.58,0-0.87,0.23-1.09,0.54v3.16l0.76,0.14c0.1,0.02,0.15,0.05,0.15,0.14
			c0,0.1-0.08,0.26-0.1,0.29h-2.54c0,0-0.01-0.06-0.01-0.09c0-0.19,0.13-0.27,0.33-0.35l0.37-0.13v-3.88l-0.75-0.12
			c0,0-0.01-0.06-0.01-0.11c0-0.18,0.14-0.3,0.39-0.33l1.43-0.14L365.13,240.79z"/>
		<path d="M372.17,244.44l0.77,0.1c0,0,0.01,0.04,0.01,0.08c0,0.19-0.14,0.31-0.39,0.34l-1.39,0.13v-0.68h-0.03
			c-0.23,0.33-0.67,0.75-1.49,0.75c-1.03,0-1.99-0.66-1.99-2.49c0-1.95,1.36-2.83,2.71-2.83c0.3,0,0.57,0.05,0.75,0.09v-1.84
			l-0.75-0.1c0,0-0.01-0.07-0.01-0.12c0-0.18,0.14-0.3,0.39-0.33l1.43-0.14V244.44z M371.11,240.77c-0.16-0.15-0.44-0.31-0.88-0.31
			c-0.85,0-1.48,0.61-1.48,1.99c0,1.35,0.59,1.9,1.29,1.9c0.61,0,0.93-0.28,1.07-0.44V240.77z"/>
		<path d="M374.6,242.51c0.01,1.3,0.63,1.91,1.53,1.91c0.67,0,1.05-0.26,1.31-0.48c0.1,0.08,0.16,0.26,0.16,0.36
			c0,0.26-0.69,0.86-1.86,0.86c-1.29,0-2.26-0.73-2.26-2.56s1.1-2.76,2.3-2.76c1.19,0,1.79,0.72,1.79,1.77
			c0,0.27-0.05,0.64-0.13,0.9H374.6z M376.44,241.95c0.02-0.09,0.05-0.27,0.05-0.45c0-0.58-0.21-1.07-0.82-1.07
			c-0.62,0-0.99,0.49-1.06,1.52H376.44z"/>
		<path d="M380.06,240.79h0.03c0.22-0.36,0.61-0.97,1.29-0.97c0.49,0,0.72,0.23,0.72,0.56c0,0.23-0.11,0.43-0.19,0.54
			c-0.08-0.04-0.35-0.16-0.7-0.16c-0.58,0-0.87,0.23-1.09,0.54v3.16l0.76,0.14c0.1,0.02,0.15,0.05,0.15,0.14
			c0,0.1-0.08,0.26-0.1,0.29h-2.54c0,0-0.01-0.06-0.01-0.09c0-0.19,0.13-0.27,0.33-0.35l0.37-0.13v-3.88l-0.75-0.12
			c0,0-0.01-0.06-0.01-0.11c0-0.18,0.14-0.3,0.39-0.33l1.43-0.14L380.06,240.79z"/>
		<path d="M385.99,240.53h-1.44v3.07c0,0.47,0.15,0.86,0.67,0.86c0.41,0,0.75-0.18,0.83-0.25c0.05,0.08,0.09,0.24,0.09,0.35
			c0,0.11-0.37,0.6-1.32,0.6c-0.96,0-1.33-0.56-1.33-1.36v-3.25h-0.79c0,0-0.01-0.06-0.01-0.09c0-0.2,0.13-0.31,0.33-0.36l0.51-0.13
			l0.24-1.42h0.78v1.42h1.55L385.99,240.53z"/>
		<path d="M393.36,244.44l0.77,0.1c0,0,0.01,0.04,0.01,0.08c0,0.19-0.14,0.31-0.39,0.34l-1.39,0.13v-0.68h-0.03
			c-0.23,0.33-0.67,0.75-1.49,0.75c-1.03,0-1.99-0.66-1.99-2.49c0-1.95,1.36-2.83,2.71-2.83c0.3,0,0.57,0.05,0.75,0.09v-1.84
			l-0.75-0.1c0,0-0.01-0.07-0.01-0.12c0-0.18,0.14-0.3,0.39-0.33l1.43-0.14V244.44z M392.3,240.77c-0.16-0.15-0.44-0.31-0.88-0.31
			c-0.85,0-1.48,0.61-1.48,1.99c0,1.35,0.59,1.9,1.29,1.9c0.61,0,0.93-0.28,1.07-0.44V240.77z"/>
		<path d="M399.36,244.44l0.77,0.1c0,0,0.01,0.04,0.01,0.08c0,0.19-0.14,0.31-0.39,0.34l-1.39,0.13v-0.69h-0.02
			c-0.17,0.22-0.63,0.76-1.55,0.76c-1.12,0-1.65-0.66-1.65-1.9v-2.68l-0.75-0.12c0,0-0.01-0.06-0.01-0.11c0-0.18,0.14-0.3,0.39-0.33
			l1.43-0.14v3.31c0,0.96,0.5,1.18,0.97,1.18c0.54,0,0.89-0.23,1.13-0.5v-3.3l-0.75-0.12c0,0-0.01-0.06-0.01-0.11
			c0-0.18,0.14-0.3,0.39-0.33l1.43-0.14V244.44z"/>
		<path d="M402.55,240.79h0.03c0.22-0.36,0.61-0.97,1.29-0.97c0.49,0,0.72,0.23,0.72,0.56c0,0.23-0.11,0.43-0.19,0.54
			c-0.08-0.04-0.35-0.16-0.7-0.16c-0.58,0-0.87,0.23-1.09,0.54v3.16l0.76,0.14c0.1,0.02,0.15,0.05,0.15,0.14
			c0,0.1-0.08,0.26-0.1,0.29h-2.54c0,0-0.01-0.06-0.01-0.09c0-0.19,0.13-0.27,0.33-0.35l0.37-0.13v-3.88l-0.75-0.12
			c0,0-0.01-0.06-0.01-0.11c0-0.18,0.14-0.3,0.39-0.33l1.43-0.14L402.55,240.79z"/>
		<path d="M407.51,240.46c-0.7,0-1.31,0.5-1.31,1.88c0,1.32,0.51,2.09,1.5,2.09c0.65,0,1.03-0.34,1.2-0.5
			c0.09,0.09,0.17,0.26,0.17,0.36c0,0.26-0.58,0.87-1.73,0.87c-1.36,0-2.25-0.86-2.25-2.59c0-1.77,1.19-2.73,2.6-2.73
			c1.15,0,1.45,0.57,1.45,0.87c0,0.28-0.14,0.55-0.54,0.63C408.45,240.96,408.21,240.46,407.51,240.46z"/>
		<path d="M411.51,240.58h0.02c0.21-0.25,0.71-0.76,1.62-0.76c1.05,0,1.65,0.62,1.65,1.85v2.78l0.61,0.14
			c0.1,0.02,0.15,0.05,0.15,0.14c0,0.1-0.08,0.26-0.1,0.29h-2.38c0,0-0.01-0.06-0.01-0.09c0-0.19,0.13-0.28,0.33-0.35l0.35-0.13
			v-2.66c0-0.89-0.48-1.17-1.02-1.17c-0.65,0-1,0.28-1.2,0.48v3.34l0.59,0.14c0.11,0.02,0.15,0.05,0.15,0.14
			c0,0.1-0.07,0.26-0.11,0.29h-2.38c0,0-0.01-0.06-0.01-0.09c0-0.19,0.13-0.28,0.33-0.35l0.37-0.13v-6.37l-0.75-0.1
			c0,0-0.01-0.07-0.01-0.12c0-0.18,0.14-0.3,0.39-0.33l1.44-0.14V240.58z"/>
		<path d="M417.08,241.12c-0.37,0-0.65-0.25-0.65-0.64c0-0.4,0.28-0.65,0.65-0.65s0.66,0.25,0.66,0.65
			C417.74,240.87,417.45,241.12,417.08,241.12z M417.08,245.16c-0.37,0-0.65-0.25-0.65-0.64c0-0.4,0.28-0.65,0.65-0.65
			s0.66,0.25,0.66,0.65C417.74,244.91,417.45,245.16,417.08,245.16z"/>
	</g>
</g>
<g id="Ebene_2" class="st3">
</g>
</svg>
