<svg version="1.1" xmlns="http://www.w3.org/2000/svg" style="display: block;" viewBox="0 0 2048 1683" width="611" height="502" preserveAspectRatio="none">
<path transform="translate(0,0)" fill="rgb(255,255,255)" d="M 0 0 L 2048 0 L 2048 1683 L 0 1683 L 0 0 z"/>
<path transform="translate(0,0)" fill="rgb(32,94,128)" d="M 951.961 316.594 C 961.187 324.263 971.699 330.236 983.01 334.235 C 961.868 384.051 937.684 435.099 915.438 484.644 C 956.838 519.55 966.628 562.046 946.746 612.24 C 992.323 648.444 1038.1 684.395 1084.08 720.089 C 1129.57 668.244 1219.01 684.032 1248.17 747.352 C 1293.43 732.66 1345.8 712.122 1391.29 695.789 C 1379.82 641.515 1418.59 588.906 1472.01 577.933 C 1499.1 572.62 1527.2 578.294 1550.1 593.704 C 1629.71 646.463 1603.02 763.541 1514.57 780.258 C 1487.14 785.714 1458.67 779.889 1435.59 764.099 C 1421.81 754.643 1411.26 742.295 1403.32 727.679 C 1389.8 734.336 1356.63 745.784 1341.06 751.196 C 1313.97 760.602 1284.58 772.655 1257.76 781.459 C 1257.47 792.058 1257 798.97 1254.85 809.458 C 1245.03 857.285 1199.7 890.513 1151.39 888.127 C 1142.66 887.696 1134.39 886.925 1126.15 883.746 C 1104.52 935.15 1076.34 988.567 1055.69 1038.98 C 1082.25 1054.29 1101.9 1075.35 1109.87 1105.69 C 1116.86 1132.04 1112.99 1160.09 1099.12 1183.55 C 1084.74 1207.5 1061.33 1224.66 1034.17 1231.16 C 1006.26 1238.13 976.709 1233.54 952.225 1218.43 C 928.344 1203.28 911.467 1179.26 905.313 1151.66 C 892.157 1093.9 927.759 1041.08 985.15 1028.73 C 997.365 1026.17 1009.92 1025.61 1022.31 1027.07 C 1029.86 1005.44 1050.45 964.259 1060.68 941.614 C 1069.33 922.457 1085.67 883.744 1094.82 866.822 C 1060.23 837.885 1046.07 792.126 1064.55 749.979 C 1024.29 723.016 985.129 685.308 945.311 656.81 C 939.125 652.383 930.613 645.781 924.953 640.7 C 905.632 658.203 876.916 668.995 850.893 667.841 C 823.475 666.564 797.695 654.417 779.255 634.085 C 775.96 630.434 771.943 625.458 769.218 621.313 C 749.768 630.263 722.975 639.361 702.186 647.015 C 681.147 654.761 655.149 665.3 634.116 671.999 C 633.469 660.089 630.765 648.38 626.122 637.393 C 666.922 621.258 716.069 606.067 755.272 589.078 C 753.374 574.228 752.837 561.48 756.039 546.709 C 761.738 520.291 777.644 497.194 800.293 482.45 C 825.724 466.136 853.84 462.738 883.095 469.166 C 905.38 418.346 929.325 367.392 951.961 316.594 z"/>
<path transform="translate(0,0)" fill="rgb(242,176,39)" d="M 634.116 671.999 C 637.024 725.524 598.512 772.382 545.438 779.896 C 492.364 787.411 442.358 753.085 430.293 700.857 C 418.228 648.628 448.112 595.848 499.105 579.322 C 550.098 562.797 605.259 588.016 626.122 637.393 C 630.765 648.38 633.469 660.089 634.116 671.999 z"/>
<path transform="translate(0,0)" fill="rgb(242,176,39)" d="M 951.961 316.594 C 911.523 282.98 903.453 224.047 933.365 180.799 C 963.278 137.551 1021.27 124.309 1066.99 150.285 C 1112.71 176.262 1131.02 232.856 1109.18 280.692 C 1087.34 328.527 1032.59 351.764 983.01 334.235 C 971.699 330.236 961.187 324.263 951.961 316.594 z"/>
<path transform="translate(0,0)" fill="rgb(85,85,85)" d="M 1454.47 808.925 C 1465.01 808.737 1476.08 808.973 1486.66 809.052 C 1482.27 850.665 1456.15 908.847 1433.99 944.244 C 1381.48 1028.11 1277.12 1121.29 1178.77 1143.73 C 1169.66 1145.93 1160.49 1147.92 1151.27 1149.68 C 1150.5 1140.07 1150.97 1127.57 1151.09 1117.64 C 1290.69 1082.59 1423.58 949.963 1454.47 808.925 z"/>
<path transform="translate(0,0)" fill="rgb(85,85,85)" d="M 572.659 808.656 L 574.052 808.42 C 576.322 810.561 577.582 821.004 578.717 824.774 C 612.239 936.171 694.784 1032.03 796.521 1087.19 C 821.509 1100.74 846.929 1106.05 872.086 1117.14 C 872.405 1127.75 872.427 1138.37 872.151 1148.98 C 864.585 1147.25 856.812 1145.2 849.257 1143.31 C 720.499 1113.24 588.089 975.232 552.939 848.355 C 549.681 836.594 545.377 822.153 544.129 810.109 C 553.642 809.69 563.152 809.206 572.659 808.656 z"/>
<path transform="translate(0,0)" fill="rgb(85,85,85)" d="M 864.963 233.338 L 874.689 232.727 C 875.758 242.961 875.961 253.007 876.296 263.281 C 851.091 268.659 838.075 273.434 814.626 284.179 C 726.853 325.38 654.497 393.486 608.064 478.607 C 596.033 501.154 586.533 526.89 577.653 550.818 C 571.451 550.855 566.06 550.678 559.861 550.357 C 554.743 549.968 548.987 549.136 543.843 548.503 C 550.863 532.393 555.132 514.851 561.717 498.603 C 599.406 405.607 675.322 323.314 761.458 272.922 C 793.765 254.022 828.04 238.935 864.963 233.338 z"/>
<path transform="translate(0,0)" fill="rgb(85,85,85)" d="M 1153.42 232.627 C 1198.42 235.656 1276.71 277.461 1312.89 305.172 C 1331.38 319.33 1356.27 342.297 1372.57 358.975 C 1417.61 405.345 1451.76 461.156 1472.55 522.361 C 1474.04 526.734 1480.54 544.189 1480.51 547.331 L 1478.57 548.399 C 1468.39 550.151 1458.11 550.616 1447.79 552.426 C 1434.97 512.664 1421.18 481.378 1398.5 445.989 C 1349.77 370.956 1279.18 312.687 1196.28 279.051 C 1181.69 273.258 1168.3 267.904 1152.97 264.528 C 1152.43 256.359 1153.21 241.292 1153.42 232.627 z"/>
<path transform="translate(0,0)" fill="rgb(85,85,85)" d="M 1374.17 1335.06 C 1383.29 1334.91 1394.37 1334.21 1394.93 1346.06 C 1395.64 1360.83 1395.39 1375.61 1395.39 1390.4 L 1395.2 1476.3 C 1389.74 1476.32 1379.99 1476.68 1374.98 1475.69 C 1374.73 1472.96 1374.48 1471.04 1374.04 1468.33 C 1369.72 1468.58 1361.75 1476.63 1354.32 1478.62 C 1340.2 1482.42 1328.33 1479.91 1315.77 1473.24 C 1275.3 1444.63 1292.5 1373.25 1344.4 1374.37 C 1357.87 1374.66 1365.05 1379.45 1374.01 1389.1 C 1373.87 1371.08 1373.92 1353.07 1374.17 1335.06 z"/>
<path transform="translate(0,0)" fill="rgb(255,255,255)" d="M 1339.35 1395.35 C 1354.49 1394.77 1365.59 1398.87 1371.41 1414.2 C 1374.87 1423.2 1374.55 1433.22 1370.52 1441.99 C 1365.57 1452.81 1359.2 1456.63 1348.83 1460.44 C 1333.77 1462.29 1321.67 1452.85 1317.09 1438.84 C 1314.06 1429.41 1315.03 1419.14 1319.78 1410.44 C 1324.61 1401.61 1330.28 1398.11 1339.35 1395.35 z"/>
<path transform="translate(0,0)" fill="rgb(85,85,85)" d="M 612.654 1375.56 C 641.33 1369.18 669.741 1387.29 676.064 1415.98 C 682.387 1444.67 664.219 1473.04 635.516 1479.3 C 606.899 1485.55 578.629 1467.44 572.325 1438.84 C 566.021 1410.24 584.063 1381.93 612.654 1375.56 z"/>
<path transform="translate(0,0)" fill="rgb(255,255,255)" d="M 619.755 1395.15 C 635.779 1394.4 647.803 1400.28 653.131 1416.21 C 656.221 1425.41 655.338 1435.49 650.694 1444.02 C 645.49 1453.68 638.948 1457.32 629.116 1460.39 C 588.188 1464.99 578.493 1404.74 619.755 1395.15 z"/>
<path transform="translate(0,0)" fill="rgb(85,85,85)" d="M 231.222 1337 C 249.923 1336.77 268.309 1336.25 287.125 1337.26 C 328.63 1339.46 338.665 1401.23 302.343 1418.53 C 291.901 1423.5 283.63 1423.2 272.265 1423.63 L 253.227 1423.88 C 253.258 1436.66 257.704 1464.35 248.601 1473.62 C 244.764 1477.53 236.663 1476.38 231.381 1476.09 C 230.6 1430.49 231.292 1382.74 231.222 1337 z"/>
<path transform="translate(0,0)" fill="rgb(255,255,255)" d="M 253.312 1356.21 C 264.95 1356.02 285.615 1353.83 294.933 1361.63 C 304.782 1369.87 303.474 1387.83 295.609 1397.19 C 282.014 1405.13 269.223 1403.09 253.401 1402.89 C 253.454 1387.33 253.425 1371.77 253.312 1356.21 z"/>
<path transform="translate(0,0)" fill="rgb(85,85,85)" d="M 1222.73 1375.34 C 1224.27 1375.22 1225.82 1375.12 1227.36 1375.05 C 1267.34 1373.18 1280.81 1396.32 1282 1433.3 C 1257.57 1434.45 1231.44 1433.35 1206.52 1434.04 C 1215.14 1466.98 1240.78 1464.76 1264.34 1449.75 C 1266.48 1448.08 1266.45 1448.21 1269.06 1447.35 C 1274.71 1448.5 1277.21 1453.88 1280.47 1458.77 C 1263.12 1479.93 1232.53 1487.48 1208.39 1473.04 C 1171.86 1451.17 1178.48 1385.18 1222.73 1375.34 z"/>
<path transform="translate(0,0)" fill="rgb(255,255,255)" d="M 1229.6 1395.01 C 1247.07 1392.28 1254.71 1402.49 1260.1 1417.02 L 1239.5 1417.15 L 1206.81 1416.98 C 1212.26 1404.24 1215.34 1398.31 1229.6 1395.01 z"/>
<path transform="translate(0,0)" fill="rgb(85,85,85)" d="M 1563.79 1375.31 C 1607.16 1372.48 1619.57 1392.62 1622.84 1433.26 C 1599.82 1434.76 1570.66 1433.42 1546.55 1433.96 C 1547.74 1438.32 1549.16 1443.42 1551.67 1447.15 C 1556.1 1453.86 1563.06 1458.5 1570.97 1460.01 C 1583.18 1462.23 1592.84 1457.38 1602.47 1450.73 L 1610.33 1445.72 C 1614.54 1450.02 1617.47 1453.63 1621.27 1458.32 C 1603.13 1479.94 1571.47 1488.12 1546.82 1472.05 C 1512.58 1449.72 1519.59 1383.61 1563.79 1375.31 z"/>
<path transform="translate(0,0)" fill="rgb(255,255,255)" d="M 1568.46 1395.15 C 1587.11 1392.29 1594.51 1401.53 1600.8 1417.15 L 1583.25 1417.13 L 1547.85 1417.07 C 1551.82 1404.25 1555.16 1399.22 1568.46 1395.15 z"/>
<path transform="translate(0,0)" fill="rgb(85,85,85)" d="M 949.519 1375.36 C 950.727 1375.24 951.937 1375.14 953.149 1375.07 C 993.428 1372.55 1006.71 1396.42 1008.03 1433.41 C 984.226 1434.63 956.321 1433.47 931.682 1433.99 C 945.468 1465.26 963.891 1467.25 990.869 1449.3 C 999.595 1444.21 1002.72 1453.38 1006.95 1460.22 C 989.055 1479.98 956.531 1487.71 933.463 1472.37 C 898.762 1449.29 905.2 1384.55 949.519 1375.36 z"/>
<path transform="translate(0,0)" fill="rgb(255,255,255)" d="M 955.137 1395.24 C 972.547 1392.28 981.18 1401.43 985.527 1417.16 L 965.997 1417.11 L 933.531 1417.16 C 938.875 1403.31 940.406 1399.43 955.137 1395.24 z"/>
<path transform="translate(0,0)" fill="rgb(85,85,85)" d="M 506.974 1333.27 C 530.062 1332.36 550.703 1340.09 564.069 1359.49 C 558.087 1367.63 554.029 1374.57 543.768 1366.96 C 517.165 1347.25 485.627 1349.42 470.05 1381.55 C 456.561 1409.38 465.501 1448.88 498.436 1457.94 C 513.894 1462.19 527.221 1456.27 540.542 1448.23 C 545.165 1445.08 547.511 1442.77 552.863 1443.23 C 559.152 1446.21 560.96 1452.95 564.066 1459.65 C 550.998 1469.39 539.972 1476.13 523.384 1479.2 C 453.817 1492.07 419.604 1411.73 457.423 1359.89 C 469.434 1343.43 486.768 1335.91 506.974 1333.27 z"/>
<path transform="translate(0,0)" fill="rgb(85,85,85)" d="M 410.166 1376.93 C 416.12 1376.89 423.7 1376.32 429.064 1378.46 C 431.849 1385.97 406.052 1446.44 401.248 1458.82 C 394.99 1474.52 384.561 1505.5 372.567 1517.19 C 364.068 1525.47 352.692 1524.01 341.954 1523.33 C 341.277 1515.97 341.506 1511.63 341.875 1504.18 C 348.923 1504.22 351.517 1503.98 358.496 1502.88 C 366.198 1491.77 368.792 1486.02 373.303 1473.34 C 363.092 1447.47 343.005 1402.46 336.004 1377.06 C 341.568 1376.91 349.503 1375.82 354.586 1378.23 C 362.721 1382.08 379.973 1435.39 384.349 1446.81 C 393.09 1426.68 402.557 1397.95 410.166 1376.93 z"/>
<path transform="translate(0,0)" fill="rgb(85,85,85)" d="M 737.239 1375.34 C 740.081 1375.16 742.925 1375.02 745.77 1374.91 C 775.168 1373.87 782.215 1396.5 782.17 1420.95 C 782.136 1439.34 782.061 1457.82 781.947 1476.22 L 761.085 1476.22 C 760.866 1456.05 762.858 1429.7 759.094 1409.88 C 756.302 1395.18 744.221 1392.97 730.952 1396.79 C 722.728 1401.32 720.721 1402.96 715.569 1410.8 C 714.624 1430.63 715.257 1455.94 715.155 1476.23 L 693.216 1476.08 C 692.615 1444.26 692.795 1409.17 693.227 1377.31 C 699.453 1377.05 705.961 1376.59 712.14 1377.18 C 714.846 1380.35 712.043 1381.54 714.419 1386.21 C 722.364 1383.86 722.607 1378.39 735.943 1375.61 L 737.239 1375.34 z"/>
<path transform="translate(0,0)" fill="rgb(85,85,85)" d="M 1463.44 1375.23 C 1464.05 1375.18 1464.66 1375.14 1465.27 1375.12 C 1477.4 1374.57 1487.48 1373.79 1497.28 1382.98 C 1511.45 1396.26 1509 1421.77 1508.94 1440.1 L 1508.78 1476.24 L 1487.94 1476.26 C 1487.49 1463.43 1488.18 1450.1 1487.87 1437.23 C 1487.3 1413.52 1489.64 1388.78 1456.95 1396.87 C 1442.33 1406.02 1440.71 1412.37 1440.86 1429.36 C 1440.99 1444.91 1441.19 1460.6 1441.35 1476.16 C 1434.19 1476.16 1427.02 1476.13 1419.86 1476.07 C 1419.37 1443.64 1419.66 1409.55 1419.9 1377.08 C 1426.27 1376.81 1433.76 1375.33 1438.16 1379.23 C 1439.91 1382.68 1439.45 1384.89 1439.33 1388.78 C 1447.61 1381.55 1452.58 1377.54 1463.44 1375.23 z"/>
<path transform="translate(0,0)" fill="rgb(85,85,85)" d="M 847.315 1375.36 C 850.843 1375.15 854.375 1375 857.908 1374.9 C 905.693 1373.71 894.486 1443.17 894.156 1476.21 L 873.125 1476.1 C 873.243 1456.69 874.525 1431.77 872.093 1412.54 C 870.016 1396.12 857.783 1393.43 843.07 1396.73 C 825.694 1404.72 825.817 1418.89 826.023 1435.7 C 826.188 1449.18 826.223 1462.76 826.143 1476.23 L 805.267 1476.21 C 804.991 1445.6 804.276 1407.24 805.559 1377.09 C 812.221 1376.81 817.797 1375.45 822.721 1379.16 C 824.591 1382.72 824.085 1385.87 824.042 1390 C 832.07 1381.72 835.918 1378.18 847.315 1375.36 z"/>
<path transform="translate(0,0)" fill="rgb(85,85,85)" d="M 1660.7 1375.35 C 1681.78 1373.79 1692.26 1373.93 1709.45 1386.22 C 1707.03 1394.14 1705.42 1396.28 1700.29 1402.33 C 1687.73 1398.54 1668.16 1386.68 1657.23 1399.36 C 1652.11 1407.44 1661.53 1412.75 1668 1414.78 C 1688.81 1421.33 1717.62 1428.71 1709.63 1457.54 C 1705.22 1473.5 1693 1477.13 1678.63 1479.87 C 1664.38 1480.36 1640.56 1478.38 1632.03 1465.02 C 1627.02 1436.21 1665.5 1465.1 1676.57 1461.1 C 1680.86 1459.55 1693.22 1454.34 1688.82 1447.77 C 1677.18 1430.41 1641.07 1436.29 1634.06 1411.64 C 1630.07 1393.52 1643.46 1378.75 1660.7 1375.35 z"/>
<path transform="translate(0,0)" fill="rgb(85,85,85)" d="M 1749.79 1375.35 C 1760.86 1374.67 1793.15 1372.73 1796.81 1388.71 C 1797.81 1393.08 1793.17 1398.94 1790.66 1402.51 C 1774.4 1398.32 1759.99 1386.44 1743.56 1400.34 C 1741.83 1401.8 1742.2 1402.25 1742.2 1404.2 C 1748.68 1414.6 1770.55 1418.08 1781.79 1423.75 C 1798.69 1432.29 1804.88 1448.45 1795.08 1465.66 C 1789.8 1474.92 1777.89 1477.55 1768.08 1479.93 C 1747.23 1480.38 1734.14 1478.66 1718.33 1464.02 C 1728.41 1443.12 1732.46 1452.49 1750.32 1458.56 C 1759.75 1461.76 1779.77 1463.2 1778.39 1448.14 C 1768.08 1430.66 1701.56 1432.76 1728.43 1388.03 C 1733.49 1379.6 1740.87 1377.18 1749.79 1375.35 z"/>
<path transform="translate(0,0)" fill="rgb(85,85,85)" d="M 1060.8 1375.27 C 1085.51 1373.99 1089.99 1375.46 1110.62 1388.33 C 1106.97 1399.54 1103.96 1407.77 1091.41 1400.86 C 1082.33 1395.86 1066.34 1392.25 1056.96 1398.13 C 1042.2 1407.4 1036.57 1430.2 1045.32 1445.36 C 1049.38 1452.26 1056.02 1457.25 1063.76 1459.25 C 1076.23 1462.58 1085.09 1458.44 1095.41 1452.37 C 1100.38 1450.34 1109.05 1448.86 1111.09 1455.9 C 1115.04 1469.55 1094.97 1477 1084.62 1478.88 C 1070.21 1481.55 1053.77 1480.35 1041.48 1471.56 C 1005.91 1446.12 1014.67 1382.94 1060.8 1375.27 z"/>
<path transform="translate(0,0)" fill="rgb(85,85,85)" d="M 1131.64 1348.07 C 1133.19 1348.02 1134.74 1348.01 1136.28 1348.02 C 1156.33 1348.2 1154.18 1362 1153.91 1377.01 C 1172.06 1376.48 1176.4 1376.83 1177.89 1396.07 L 1153.9 1396.2 C 1153.86 1412.18 1152.55 1434.67 1154.98 1449.94 C 1157.95 1468.66 1171.01 1447 1176.86 1472.75 C 1176.64 1474.21 1176.44 1474.09 1175.56 1475.48 C 1165.95 1481.71 1149.18 1481.88 1141.45 1473.12 C 1126.51 1456.18 1131.39 1417.54 1131.62 1396.22 L 1117.12 1396.21 L 1117.4 1376.92 L 1131.6 1377.03 C 1131.41 1367.38 1131.43 1357.72 1131.64 1348.07 z"/>
</svg>