<?xml version="1.0" encoding="UTF-8"?>
<svg xmlns="http://www.w3.org/2000/svg" xmlns:xlink="http://www.w3.org/1999/xlink" viewBox="0 0 850 567">
  <defs>
    <style>
      .cls-1 {
        fill: none;
      }

      .cls-2, .cls-3 {
        fill: #f2aae2;
      }

      .cls-3, .cls-4 {
        fill-rule: evenodd;
      }

      .cls-5 {
        clip-path: url(#clippath-1);
      }

      .cls-6 {
        fill: #fff;
      }

      .cls-7 {
        clip-path: url(#clippath);
      }
    </style>
    <clipPath id="clippath">
      <rect class="cls-1" x="638.87" y="330.17" width="100" height="100"/>
    </clipPath>
    <clipPath id="clippath-1">
      <rect class="cls-1" x="638.87" y="330.17" width="100" height="100"/>
    </clipPath>
  </defs>
  <g id="Hintergrund">
    <rect class="cls-6" width="850" height="567"/>
  </g>
  <g id="Logo">
    <g id="PrototypeFund_logo_dark">
      <path class="cls-4" d="M82.42,226.01h85.95l22.48,41.79-18.82,32.95-14,12.73-34.24,6.34v27.35l12.19,5.05v12.57l-14.42,11.8h-53.56v-13.02l12.19-9.97v-97.77l-12.19-5.05v-12.97l14.42-11.8ZM133.29,362.82h-49.05v-8.8l12.19-5.05v-106.02l-12.19-5.05v-9.2h82.52l21.01,39.06-17.68,30.96-33.86,7.39h-15.13v42.86l12.19,5.05v8.8ZM136.07,239.62l22.4,10.96,7.87,17.15-7.85,14.67-22.43,12.18-14.94-3.36v-48.18l14.96-3.43ZM145.67,286.29l4.1-7.57-6.91-15.06-19.07-9.34v34.75l11.86,2.66,10.02-5.45Z"/>
      <path d="M449.44,375.18h-27.52v-67.68h27.69c20.04,0,31.17,9.08,31.17,33.66s-10.51,34.11-31.34,34.02ZM435.19,363.33h12.38c12.38,0,19.06-4.81,19.06-21.99,0-16.21-5.88-21.99-19.06-21.99h-12.38v43.99Z"/>
      <path d="M354.98,375.18v-67.68h12.82l29.03,45.95v-45.95h13.36v67.68h-13.27l-28.67-44.35v44.35h-13.27Z"/>
      <path d="M315.64,376.6c-21.64,0-27.6-12.38-27.6-29.92v-39.18h13.27v34.46c0,13.45.89,22.8,14.34,22.8s14.25-9.35,14.25-22.8v-34.46h13.36v39.18c0,17.99-6.23,29.92-27.6,29.92Z"/>
      <path d="M276.36,320.68h-33.84v13.62h33.47v12.29h-33.47v28.58h-13.18v-67.68h47.02v13.18Z"/>
      <path d="M745.76,281.94h36.24v13.18h-49.42v-67.68h47.91v13.18h-34.73v13.62h31.61v12.29h-31.61v15.41Z"/>
      <path d="M675.19,295.12v-67.68h26.18c13.53,0,22.8,6.95,22.8,20.57s-9.44,20.57-23.78,20.57h-11.93v26.54h-13.27ZM688.45,256.92h10.06c6.68,0,11.75-2.4,11.75-8.73s-4.72-9.17-11.75-9.17h-10.06v17.9Z"/>
      <path d="M629.63,295.12v-23.6l-23.51-44.08h14.78l15.4,32.15,15.32-32.15h14.78l-23.51,44.08v23.6h-13.27Z"/>
      <path d="M601.5,240.62h-20.48v54.5h-13.27v-54.5h-20.48v-13.18h54.23v13.18Z"/>
      <path d="M509.48,296.54c-21.64,0-34.11-15.32-34.11-35.26s12.47-35.26,34.11-35.26,34.02,15.32,34.02,35.26-12.47,35.26-34.02,35.26ZM509.39,284.7c12.82,0,19.77-11.13,19.77-23.42s-6.95-23.42-19.77-23.42-19.77,11.13-19.77,23.42,6.95,23.42,19.77,23.42Z"/>
      <path d="M471.66,240.62h-20.48v54.5h-13.27v-54.5h-20.48v-13.18h54.23v13.18Z"/>
      <path d="M379.65,296.54c-21.64,0-34.11-15.32-34.11-35.26s12.47-35.26,34.11-35.26,34.02,15.32,34.02,35.26-12.47,35.26-34.02,35.26ZM379.56,284.7c12.82,0,19.77-11.13,19.77-23.42s-6.95-23.42-19.77-23.42-19.77,11.13-19.77,23.42,6.95,23.42,19.77,23.42Z"/>
      <path d="M288.04,295.12v-67.68h25.38c14.25,0,23.6,6.77,23.6,19.68,0,11.93-8.46,18.08-20.84,19.32l24.67,28.67h-16.21l-23.33-27.69v27.69h-13.27ZM301.31,256.12h10.69c5.61,0,11.04-2.32,11.04-8.37s-4.72-8.73-11.67-8.73h-10.06v17.1Z"/>
      <path d="M229.34,295.12v-67.68h26.18c13.54,0,22.8,6.95,22.8,20.57s-9.44,20.57-23.78,20.57h-11.93v26.54h-13.27ZM242.61,256.92h10.06c6.68,0,11.75-2.4,11.75-8.73s-4.72-9.17-11.75-9.17h-10.06v17.9Z"/>
    </g>
    <g>
      <rect class="cls-1" x="68" y="96.49" width="625.12" height="81"/>
      <path d="M84.85,130.66c-2.75,0-5.15-.56-7.2-1.68-2.05-1.12-3.62-2.71-4.73-4.78s-1.66-4.5-1.66-7.32v-20.45h7.01v20.45c0,2.18.52,3.98,1.56,5.4,1.04,1.42,2.65,2.14,4.82,2.14,1.41,0,2.58-.33,3.53-.98.94-.66,1.66-1.55,2.14-2.69.48-1.14.72-2.42.72-3.86v-20.45h7.01v20.45c0,4.26-1.14,7.62-3.43,10.08-2.29,2.46-5.54,3.7-9.77,3.7Z"/>
      <path d="M105.34,130.09v-33.6h7.49l14.16,23.81h-1.54v-23.81h7.01v33.6h-6.91l-14.74-24.19h1.54v24.19h-7.01Z"/>
      <path d="M147.15,130.09v-27.55h-8.78v-6.05h24.77v6.05h-8.98v27.55h-7.01Z"/>
      <path d="M168.42,130.09v-33.6h21.94v6.05h-14.93v7.25h12.48v6.05h-12.48v8.21h14.93v6.05h-21.94Z"/>
      <path d="M196.69,130.13v-33.7h14.4c2.14,0,4.03.41,5.66,1.22,1.63.82,2.92,2.02,3.86,3.62.94,1.6,1.42,3.55,1.42,5.86,0,2.18-.44,4.09-1.32,5.74-.88,1.65-2.14,2.92-3.79,3.82-1.65.9-3.62,1.34-5.93,1.34h-7.2v12.1h-7.1ZM203.69,111.99h6.19c1.02,0,1.89-.18,2.59-.53.7-.35,1.24-.9,1.61-1.63.37-.74.55-1.66.55-2.78,0-1.28-.42-2.36-1.25-3.24-.83-.88-2-1.32-3.5-1.32h-6.19v9.5ZM216.08,130.09l-7.87-12.91,7.63-.67,8.54,13.58h-8.3Z"/>
      <path d="M240.94,130.66c-2.34,0-4.31-.32-5.93-.96-1.62-.64-2.94-1.5-3.98-2.59-1.04-1.09-1.83-2.3-2.38-3.62-.54-1.33-.9-2.68-1.06-4.06h7.49c.22,1.18.62,2.14,1.2,2.88.58.74,1.27,1.27,2.09,1.61s1.67.5,2.57.5c.99,0,1.87-.13,2.64-.38.77-.26,1.38-.62,1.85-1.1.46-.48.7-1.07.7-1.78,0-1.06-.31-1.89-.94-2.5s-1.46-1.1-2.5-1.46c-1.04-.37-2.18-.71-3.41-1.03-1.23-.32-2.46-.7-3.7-1.13-1.23-.43-2.37-1.01-3.41-1.73-1.04-.72-1.87-1.67-2.5-2.86-.62-1.18-.94-2.7-.94-4.56,0-1.63.43-3.21,1.3-4.73.86-1.52,2.2-2.78,4.01-3.77,1.81-.99,4.12-1.49,6.94-1.49,2.14,0,3.98.31,5.5.94,1.52.62,2.77,1.43,3.74,2.42.98.99,1.7,2.06,2.18,3.22s.75,2.27.82,3.36h-7.34c-.13-.8-.41-1.47-.84-2.02-.43-.54-.99-.96-1.68-1.25-.69-.29-1.48-.43-2.38-.43-.7,0-1.43.1-2.18.29-.75.19-1.39.54-1.92,1.03-.53.5-.79,1.22-.79,2.18,0,.83.31,1.51.94,2.04.62.53,1.46.97,2.5,1.32,1.04.35,2.18.7,3.43,1.03s2.49.74,3.72,1.22,2.37,1.1,3.41,1.85c1.04.75,1.87,1.72,2.5,2.9.62,1.18.94,2.67.94,4.46,0,2.18-.52,4.02-1.56,5.54-1.04,1.52-2.5,2.67-4.37,3.46s-4.09,1.18-6.65,1.18Z"/>
      <path d="M265.95,130.09v-27.55h-8.78v-6.05h24.77v6.05h-8.98v27.55h-7.01Z"/>
      <path d="M300.7,130.66c-2.75,0-5.15-.56-7.2-1.68-2.05-1.12-3.62-2.71-4.73-4.78s-1.66-4.5-1.66-7.32v-20.45h7.01v20.45c0,2.18.52,3.98,1.56,5.4,1.04,1.42,2.65,2.14,4.82,2.14,1.41,0,2.58-.33,3.53-.98.94-.66,1.66-1.55,2.14-2.69.48-1.14.72-2.42.72-3.86v-20.45h7.01v20.45c0,4.26-1.14,7.62-3.43,10.08-2.29,2.46-5.54,3.7-9.77,3.7ZM295.52,94.04c-1.09,0-2.03-.41-2.83-1.22-.8-.82-1.2-1.77-1.2-2.86s.4-2.08,1.2-2.88c.8-.8,1.74-1.2,2.83-1.2,1.15,0,2.11.4,2.88,1.2.77.8,1.15,1.76,1.15,2.88s-.38,2.04-1.15,2.86-1.73,1.22-2.88,1.22ZM306.41,94.04c-1.09,0-2.03-.41-2.83-1.22-.8-.82-1.2-1.77-1.2-2.86s.4-2.08,1.2-2.88c.8-.8,1.74-1.2,2.83-1.2,1.15,0,2.11.4,2.88,1.2.77.8,1.15,1.76,1.15,2.88s-.38,2.04-1.15,2.86-1.73,1.22-2.88,1.22Z"/>
      <path d="M327.87,130.09v-27.55h-8.78v-6.05h24.77v6.05h-8.98v27.55h-7.01Z"/>
      <path d="M347.21,130.04v-5.86l15.36-21.65h-15.36v-6.05h23.38v5.86l-15.26,21.65h15.26v6.05h-23.38Z"/>
      <path d="M382.83,130.09v-27.55h-8.78v-6.05h24.77v6.05h-8.98v27.55h-7.01Z"/>
      <path d="M419.45,130.09v-33.6h11.9c3.68,0,6.71.7,9.1,2.11,2.38,1.41,4.16,3.37,5.33,5.88,1.17,2.51,1.75,5.46,1.75,8.86s-.58,6.25-1.75,8.76c-1.17,2.51-2.95,4.47-5.33,5.88-2.38,1.41-5.42,2.11-9.1,2.11h-11.9ZM426.46,124.04h5.04c1.89,0,3.47-.37,4.75-1.1,1.28-.74,2.25-1.9,2.9-3.48.66-1.58.98-3.64.98-6.17s-.33-4.58-.98-6.14c-.66-1.57-1.62-2.73-2.9-3.48-1.28-.75-2.86-1.13-4.75-1.13h-5.04v21.5Z"/>
      <path d="M466.68,130.66c-2.75,0-5.15-.56-7.2-1.68-2.05-1.12-3.62-2.71-4.73-4.78-1.1-2.06-1.66-4.5-1.66-7.32v-20.45h7.01v20.45c0,2.18.52,3.98,1.56,5.4,1.04,1.42,2.65,2.14,4.82,2.14,1.41,0,2.58-.33,3.53-.98.94-.66,1.66-1.55,2.14-2.69.48-1.14.72-2.42.72-3.86v-20.45h7.01v20.45c0,4.26-1.14,7.62-3.43,10.08-2.29,2.46-5.54,3.7-9.77,3.7Z"/>
      <path d="M487.47,130.13v-33.7h14.4c2.14,0,4.03.41,5.66,1.22,1.63.82,2.92,2.02,3.86,3.62.94,1.6,1.42,3.55,1.42,5.86,0,2.18-.44,4.09-1.32,5.74-.88,1.65-2.14,2.92-3.79,3.82-1.65.9-3.62,1.34-5.93,1.34h-7.2v12.1h-7.1ZM494.47,111.99h6.19c1.02,0,1.89-.18,2.59-.53.7-.35,1.24-.9,1.61-1.63.37-.74.55-1.66.55-2.78,0-1.28-.42-2.36-1.25-3.24-.83-.88-2-1.32-3.5-1.32h-6.19v9.5ZM506.86,130.09l-7.87-12.91,7.63-.67,8.54,13.58h-8.3Z"/>
      <path d="M534.12,130.66c-2.94,0-5.43-.5-7.46-1.49-2.03-.99-3.67-2.33-4.92-4.01-1.25-1.68-2.15-3.57-2.71-5.66-.56-2.1-.84-4.25-.84-6.46,0-2.34.32-4.54.96-6.6.64-2.06,1.62-3.89,2.93-5.47,1.31-1.58,2.96-2.83,4.94-3.74,1.98-.91,4.32-1.37,7.01-1.37,2.08,0,4.02.43,5.81,1.3,1.79.86,3.32,2.06,4.58,3.58,1.26,1.52,2.12,3.27,2.57,5.26l-6.77,1.34c-.22-.93-.66-1.79-1.3-2.59-.64-.8-1.39-1.44-2.26-1.92-.86-.48-1.78-.72-2.74-.72-1.92,0-3.5.43-4.73,1.3-1.23.86-2.14,2.1-2.74,3.72-.59,1.62-.89,3.56-.89,5.83,0,2.53.31,4.64.94,6.34.62,1.7,1.57,2.97,2.83,3.82,1.26.85,2.86,1.27,4.78,1.27.9,0,1.77-.22,2.62-.65.85-.43,1.58-1.03,2.21-1.8s1.05-1.68,1.27-2.74l6.77,1.34c-.45,1.95-1.22,3.7-2.3,5.23-1.09,1.54-2.51,2.74-4.27,3.6-1.76.86-3.86,1.3-6.29,1.3Z"/>
      <path d="M552.89,130.09v-33.6h7.01v13.1h13.54v-13.1h7.01v33.6h-7.01v-14.45h-13.54v14.45h-7.01Z"/>
      <path d="M592.78,114.29c-1.15,0-2.14-.41-2.95-1.22-.82-.82-1.22-1.8-1.22-2.95s.41-2.08,1.22-2.88c.82-.8,1.8-1.2,2.95-1.2s2.09.4,2.9,1.2c.82.8,1.22,1.76,1.22,2.88s-.41,2.14-1.22,2.95-1.78,1.22-2.9,1.22ZM592.78,130.66c-1.15,0-2.14-.41-2.95-1.22-.82-.82-1.22-1.8-1.22-2.95s.41-2.08,1.22-2.88c.82-.8,1.8-1.2,2.95-1.2s2.09.4,2.9,1.2c.82.8,1.22,1.76,1.22,2.88s-.41,2.14-1.22,2.95-1.78,1.22-2.9,1.22Z"/>
    </g>
  </g>
  <g id="Pattern">
    <g id="shape-04">
      <path class="cls-3" d="M671.87,463.17h-33v34h33v-34ZM655.37,488.17c4.14,0,7.5-3.36,7.5-7.5s-3.36-7.5-7.5-7.5-7.5,3.36-7.5,7.5,3.36,7.5,7.5,7.5Z"/>
      <path class="cls-3" d="M738.87,463.17h-33v34h33v-34ZM722.37,488.17c4.14,0,7.5-3.36,7.5-7.5s-3.36-7.5-7.5-7.5-7.5,3.36-7.5,7.5,3.36,7.5,7.5,7.5Z"/>
      <path class="cls-3" d="M705.87,497.17h-34v33h34v-33ZM689.37,521.17c4.14,0,7.5-3.36,7.5-7.5s-3.36-7.5-7.5-7.5-7.5,3.36-7.5,7.5,3.36,7.5,7.5,7.5Z"/>
      <path class="cls-3" d="M705.87,430.17h-34v33h34v-33ZM689.37,454.17c4.14,0,7.5-3.36,7.5-7.5s-3.36-7.5-7.5-7.5-7.5,3.36-7.5,7.5,3.36,7.5,7.5,7.5Z"/>
    </g>
    <g id="shape-08">
      <path class="cls-2" d="M538.87,430.17h17v17h-17v-17Z"/>
      <path class="cls-2" d="M621.87,513.17h17v17h-17v-17Z"/>
      <path class="cls-2" d="M555.87,447.17h16v16h-16v-16Z"/>
      <path class="cls-2" d="M605.87,497.17h16v16h-16v-16Z"/>
      <path class="cls-2" d="M605.87,430.17h16v17h-16v-17Z"/>
      <path class="cls-2" d="M538.87,497.17h17v16h-17v-16Z"/>
      <path class="cls-2" d="M621.87,447.17h17v16h-17v-16Z"/>
      <path class="cls-2" d="M555.87,513.17h16v17h-16v-17Z"/>
    </g>
    <g id="shape-09">
      <g class="cls-7">
        <g class="cls-5">
          <path class="cls-2" d="M679.87,343.17c0,2.21-1.79,4-4,4s-4-1.79-4-4,1.79-4,4-4,4,1.79,4,4"/>
          <path class="cls-2" d="M667.87,355.17c0,2.21-1.79,4-4,4s-4-1.79-4-4,1.79-4,4-4,4,1.79,4,4"/>
          <path class="cls-2" d="M655.87,367.17c0,2.21-1.79,4-4,4s-4-1.79-4-4,1.79-4,4-4,4,1.79,4,4"/>
          <path class="cls-2" d="M679.87,367.17c0,2.21-1.79,4-4,4s-4-1.79-4-4,1.79-4,4-4,4,1.79,4,4"/>
          <path class="cls-2" d="M655.87,343.17c0,2.21-1.79,4-4,4s-4-1.79-4-4,1.79-4,4-4,4,1.79,4,4"/>
          <path class="cls-2" d="M729.87,393.17c0,2.21-1.79,4-4,4s-4-1.79-4-4,1.79-4,4-4,4,1.79,4,4"/>
          <path class="cls-2" d="M705.87,393.17c0,2.21-1.79,4-4,4s-4-1.79-4-4,1.79-4,4-4,4,1.79,4,4"/>
          <path class="cls-2" d="M729.87,417.17c0,2.21-1.79,4-4,4s-4-1.79-4-4,1.79-4,4-4,4,1.79,4,4"/>
          <path class="cls-2" d="M717.87,405.17c0,2.21-1.79,4-4,4s-4-1.79-4-4,1.79-4,4-4,4,1.79,4,4"/>
          <path class="cls-2" d="M705.87,417.17c0,2.21-1.79,4-4,4s-4-1.79-4-4,1.79-4,4-4,4,1.79,4,4"/>
        </g>
      </g>
    </g>
  </g>
</svg>